<mxfile host="app.diagrams.net" modified="2023-11-22T13:05:14.047Z" agent="Mozilla/5.0 (Windows NT 10.0; Win64; x64) AppleWebKit/537.36 (KHTML, like Gecko) Chrome/119.0.0.0 Safari/537.36" etag="Udb4nycUEFxcy-Toiozv" version="22.1.3" type="device">
  <diagram name="Page-1" id="APt-hT_LihUbMdc_tz-h">
    <mxGraphModel dx="281" dy="565" grid="1" gridSize="10" guides="1" tooltips="1" connect="1" arrows="1" fold="1" page="1" pageScale="1" pageWidth="850" pageHeight="1100" math="0" shadow="0">
      <root>
        <mxCell id="0" />
        <mxCell id="1" parent="0" />
        <mxCell id="a-1cp_cyrWSHH50oJp6S-1" value="longDistanceGUI" style="swimlane;fontStyle=1;align=center;verticalAlign=top;childLayout=stackLayout;horizontal=1;startSize=26;horizontalStack=0;resizeParent=1;resizeParentMax=0;resizeLast=0;collapsible=1;marginBottom=0;whiteSpace=wrap;html=1;" vertex="1" parent="1">
          <mxGeometry x="340" y="250" width="160" height="290" as="geometry" />
        </mxCell>
        <mxCell id="a-1cp_cyrWSHH50oJp6S-2" value="mainWindow&lt;br&gt;labelFrame&lt;br&gt;radio Frame&lt;br&gt;minFrame&lt;br&gt;buttonFrame&lt;br&gt;label1&lt;br&gt;radioVar&lt;br&gt;rb1&lt;br&gt;rb2&lt;br&gt;rb3&lt;br&gt;minPrompt&lt;br&gt;minEntry&lt;br&gt;calcButton&lt;br&gt;quitButton" style="text;strokeColor=none;fillColor=none;align=left;verticalAlign=top;spacingLeft=4;spacingRight=4;overflow=hidden;rotatable=0;points=[[0,0.5],[1,0.5]];portConstraint=eastwest;whiteSpace=wrap;html=1;" vertex="1" parent="a-1cp_cyrWSHH50oJp6S-1">
          <mxGeometry y="26" width="160" height="204" as="geometry" />
        </mxCell>
        <mxCell id="a-1cp_cyrWSHH50oJp6S-3" value="" style="line;strokeWidth=1;fillColor=none;align=left;verticalAlign=middle;spacingTop=-1;spacingLeft=3;spacingRight=3;rotatable=0;labelPosition=right;points=[];portConstraint=eastwest;strokeColor=inherit;" vertex="1" parent="a-1cp_cyrWSHH50oJp6S-1">
          <mxGeometry y="230" width="160" height="8" as="geometry" />
        </mxCell>
        <mxCell id="a-1cp_cyrWSHH50oJp6S-4" value="__init__()&lt;br&gt;calcPrice()" style="text;strokeColor=none;fillColor=none;align=left;verticalAlign=top;spacingLeft=4;spacingRight=4;overflow=hidden;rotatable=0;points=[[0,0.5],[1,0.5]];portConstraint=eastwest;whiteSpace=wrap;html=1;" vertex="1" parent="a-1cp_cyrWSHH50oJp6S-1">
          <mxGeometry y="238" width="160" height="52" as="geometry" />
        </mxCell>
      </root>
    </mxGraphModel>
  </diagram>
</mxfile>
